<svg width="255" height="191" viewBox="0 0 255 191" fill="none" xmlns="http://www.w3.org/2000/svg">
<g filter="url(#filter0_d_147_1161)">
<path d="M127 91.8396C67.9129 91.8396 20 104.941 20 121.151V135.782C20 151.954 67.9129 165.094 127 165.094C186.087 165.094 234.013 151.993 234.013 135.782V121.1C234.013 104.941 186.151 91.8396 127 91.8396Z" fill="#6F9573"/>
<path d="M127 150.374C186.094 150.374 234 137.273 234 121.113C234 104.953 186.094 91.8523 127 91.8523C67.9056 91.8523 20 104.953 20 121.113C20 137.273 67.9056 150.374 127 150.374Z" fill="#DCEE96"/>
<path d="M175.523 94.9619C165.201 95.9687 152.463 101.461 151.738 106.572C150.81 113.173 177.049 123.025 168.493 130.174C158.323 138.687 117.961 149.966 117.961 149.966C110.258 151.623 55.9251 145.735 51.1453 141.95C51.1453 141.95 129.098 131.079 135.161 120.782C138.556 115.009 130.954 111.287 129.797 108.598C125.729 99.2439 175.523 94.9619 175.523 94.9619Z" fill="#6EA2DF"/>
<path d="M117.504 18.3561L68.9681 82.8294C68.0211 84.0842 67.4425 85.5793 67.2974 87.146C67.1523 88.7128 67.4465 90.289 68.1469 91.6972C68.8472 93.1054 69.9259 94.2896 71.2613 95.1163C72.5968 95.9431 74.1361 96.3795 75.7056 96.3765H172.765C174.332 96.3748 175.868 95.9354 177.201 95.1077C178.533 94.28 179.61 93.0966 180.309 91.6902C181.009 90.2837 181.304 88.7099 181.161 87.1449C181.019 85.5799 180.444 84.0855 179.502 82.8294L130.966 18.3561C130.179 17.3133 129.162 16.4676 127.994 15.8853C126.826 15.303 125.539 15 124.235 15C122.931 15 121.644 15.303 120.476 15.8853C119.308 16.4676 118.291 17.3133 117.504 18.3561V18.3561Z" fill="#43642F"/>
<path d="M65.1417 56.2449L30.653 102.736C29.5054 104.255 28.8054 106.066 28.6322 107.963C28.4591 109.861 28.8199 111.769 29.6736 113.471C30.5273 115.174 31.8398 116.602 33.4622 117.595C35.0846 118.587 36.9519 119.104 38.8525 119.087H107.83C109.73 119.104 111.598 118.587 113.22 117.595C114.843 116.602 116.155 115.174 117.009 113.471C117.862 111.769 118.223 109.861 118.05 107.963C117.877 106.066 117.177 104.255 116.029 102.736L81.5407 56.2449C80.596 54.9542 79.3614 53.9046 77.9369 53.1812C76.5124 52.4577 74.938 52.0808 73.3412 52.0808C71.7443 52.0808 70.1699 52.4577 68.7454 53.1812C67.3209 53.9046 66.0863 54.9542 65.1417 56.2449Z" fill="#628F47"/>
<path d="M175.726 72.3026L162.734 94.8727C161.813 96.4726 161.328 98.2875 161.328 100.135C161.327 101.982 161.812 103.797 162.733 105.398C163.654 106.998 164.979 108.327 166.575 109.251C168.171 110.175 169.981 110.662 171.824 110.663H197.821C199.663 110.662 201.474 110.175 203.069 109.251C204.665 108.327 205.99 106.998 206.911 105.398C207.832 103.797 208.317 101.982 208.317 100.135C208.317 98.2875 207.831 96.4726 206.91 94.8727L193.905 72.3026C192.983 70.7043 191.658 69.3773 190.062 68.4548C188.467 67.5322 186.658 67.0466 184.816 67.0466C182.974 67.0466 181.165 67.5322 179.569 68.4548C177.974 69.3773 176.649 70.7043 175.726 72.3026V72.3026Z" fill="#549752"/>
<path d="M192.031 85.981L182.078 103.058C181.372 104.268 181 105.641 181 107.039C181 108.437 181.371 109.81 182.077 111.021C182.783 112.231 183.798 113.237 185.02 113.936C186.243 114.635 187.63 115.004 189.041 115.004H208.959C210.37 115.004 211.757 114.635 212.98 113.936C214.202 113.237 215.217 112.231 215.923 111.021C216.629 109.81 217 108.437 217 107.039C217 105.641 216.628 104.268 215.922 103.058L205.959 85.981C205.252 84.7718 204.237 83.7678 203.015 83.0698C201.792 82.3718 200.406 82.0044 198.995 82.0044C197.584 82.0044 196.198 82.3718 194.976 83.0698C193.753 83.7678 192.738 84.7718 192.031 85.981V85.981Z" fill="#65BD63"/>
<path d="M176.031 89.981L166.078 107.058C165.372 108.268 165 109.641 165 111.039C165 112.437 165.371 113.81 166.077 115.021C166.783 116.231 167.798 117.237 169.02 117.936C170.243 118.635 171.63 119.004 173.041 119.004H192.959C194.37 119.004 195.757 118.635 196.98 117.936C198.202 117.237 199.217 116.231 199.923 115.021C200.629 113.81 201 112.437 201 111.039C201 109.641 200.628 108.268 199.922 107.058L189.959 89.981C189.252 88.7718 188.237 87.7678 187.015 87.0698C185.792 86.3718 184.406 86.0044 182.995 86.0044C181.584 86.0044 180.198 86.3718 178.976 87.0698C177.753 87.7678 176.738 88.7718 176.031 89.981V89.981Z" fill="#7CD87A"/>
</g>
<defs>
<filter id="filter0_d_147_1161" x="0" y="0" width="254.013" height="190.094" filterUnits="userSpaceOnUse" color-interpolation-filters="sRGB">
<feFlood flood-opacity="0" result="BackgroundImageFix"/>
<feColorMatrix in="SourceAlpha" type="matrix" values="0 0 0 0 0 0 0 0 0 0 0 0 0 0 0 0 0 0 127 0" result="hardAlpha"/>
<feOffset dy="5"/>
<feGaussianBlur stdDeviation="10"/>
<feComposite in2="hardAlpha" operator="out"/>
<feColorMatrix type="matrix" values="0 0 0 0 0.34125 0 0 0 0 0.4875 0 0 0 0 0.463525 0 0 0 1 0"/>
<feBlend mode="normal" in2="BackgroundImageFix" result="effect1_dropShadow_147_1161"/>
<feBlend mode="normal" in="SourceGraphic" in2="effect1_dropShadow_147_1161" result="shape"/>
</filter>
</defs>
</svg>
