<?xml version="1.0" encoding="utf-8"?>
<!-- Generator: Adobe Illustrator 26.0.1, SVG Export Plug-In . SVG Version: 6.00 Build 0)  -->
<svg version="1.1" id="レイヤー_1" xmlns="http://www.w3.org/2000/svg" xmlns:xlink="http://www.w3.org/1999/xlink" x="0px"
	 y="0px" viewBox="0 0 14 14" style="enable-background:new 0 0 14 14;" xml:space="preserve">
<style type="text/css">
	.st0{fill:#FFFFFF;}
</style>
<path class="st0" d="M12.4,0H1.6C0.7,0,0,0.7,0,1.6v10.9C0,13.3,0.7,14,1.6,14h10.9c0.9,0,1.6-0.7,1.6-1.6V1.6C14,0.7,13.3,0,12.4,0
	z M3.1,3.1h1.6v1.6H3.1V3.1z M3.1,6.2h1.6v1.6H3.1V6.2z M3.1,9.3h1.6v1.6H3.1V9.3z M10.9,10.9H6.2V9.3h4.7V10.9z M10.9,7.8H6.2V6.2
	h4.7V7.8z M10.9,4.7H6.2V3.1h4.7V4.7z"/>
</svg>
