<?xml version="1.0" encoding="utf-8"?>
<!-- Generator: Adobe Illustrator 26.0.1, SVG Export Plug-In . SVG Version: 6.00 Build 0)  -->
<svg version="1.1" id="レイヤー_1" xmlns="http://www.w3.org/2000/svg" xmlns:xlink="http://www.w3.org/1999/xlink" x="0px"
	 y="0px" viewBox="0 0 18 18" style="enable-background:new 0 0 18 18;" xml:space="preserve">
<style type="text/css">
	.st0{fill:#FFFFFF;}
</style>
<path class="st0" d="M12,18l-6-2.1l-4.7,1.8c-0.3,0.1-0.6,0.1-0.9-0.1C0.1,17.4,0,17.1,0,16.7v-14c0-0.2,0.1-0.4,0.2-0.6
	C0.3,2,0.5,1.9,0.7,1.8L6,0l6,2.1l4.6-1.8c0.3-0.1,0.6-0.1,0.9,0.1C17.9,0.6,18,0.9,18,1.2v14c0,0.2-0.1,0.4-0.2,0.6
	c-0.1,0.2-0.3,0.3-0.5,0.4L12,18z M11,15.5V3.8L7,2.4v11.7L11,15.5z M13,15.5l3-1V2.7l-3,1.1V15.5z M2,15.3l3-1.2V2.4l-3,1V15.3z
	 M13,3.8v11.7V3.8z M5,2.4v11.7V2.4z"/>
</svg>
