<svg width="12" height="12" viewBox="0 0 12 12" fill="none" xmlns="http://www.w3.org/2000/svg">
<path d="M6.66667 0H5.33333V6.66667H6.66667V0ZM9.88667 1.44667L8.94 2.39333C9.47995 2.82646 9.91551 3.37553 10.2144 3.99987C10.5133 4.62421 10.6679 5.3078 10.6667 6C10.6667 8.58 8.58 10.6667 6 10.6667C5.03681 10.6672 4.09708 10.3696 3.3099 9.81451C2.52273 9.25946 1.92673 8.47429 1.60379 7.56685C1.28086 6.65942 1.24683 5.67425 1.50638 4.74669C1.76593 3.81914 2.30633 2.99471 3.05333 2.38667L2.11333 1.44667C1.45081 2.006 0.918434 2.70328 0.553407 3.48976C0.18838 4.27623 -0.000488887 5.13294 9.5037e-07 6C9.74082e-07 7.5913 0.632142 9.11742 1.75736 10.2426C2.88258 11.3679 4.4087 12 6 12C7.5913 12 9.11742 11.3679 10.2426 10.2426C11.3679 9.11742 12 7.5913 12 6C12 4.17333 11.18 2.54667 9.88667 1.44667Z" fill="white"/>
</svg>
